<?xml version="1.0" standalone="no"?>
<!DOCTYPE svg PUBLIC "-//W3C//DTD SVG 20010904//EN"
 "http://www.w3.org/TR/2001/REC-SVG-20010904/DTD/svg10.dtd">
<svg version="1.0" xmlns="http://www.w3.org/2000/svg"
 width="260.000000pt" height="260.000000pt" viewBox="0 0 260.000000 260.000000"
 preserveAspectRatio="xMidYMid meet">
<metadata>
Created by potrace 1.11, written by Peter Selinger 2001-2013
</metadata>
<g transform="translate(0.000000,260.000000) scale(0.100000,-0.100000)"
fill="#000000" stroke="none">
<path d="M0 1300 l0 -1300 1300 0 1300 0 0 1300 0 1300 -1300 0 -1300 0 0
-1300z m1170 -25 l0 -735 -124 0 c-137 0 -126 -5 -141 68 l-7 32 -46 -34
c-111 -80 -196 -104 -300 -86 -91 16 -142 40 -202 96 -98 91 -148 219 -157
399 -9 196 43 353 156 466 80 80 150 111 257 117 94 5 133 -5 205 -54 28 -19
52 -34 54 -34 2 0 1 105 -2 234 -3 129 -3 241 0 250 5 14 28 16 157 16 l150 0
0 -735z m580 479 l0 -256 33 22 c91 61 137 75 242 75 89 0 106 -3 157 -28 107
-53 187 -158 224 -297 24 -90 24 -291 0 -379 -56 -205 -189 -341 -363 -372
-101 -18 -204 17 -295 99 l-36 33 -12 -56 -11 -55 -125 0 -124 0 0 728 c0 401
3 732 7 735 3 4 73 7 155 7 l148 0 0 -256z"/>
<path d="M635 1336 c-78 -36 -116 -111 -123 -246 -8 -157 21 -246 97 -297 63
-43 167 -27 224 34 l27 30 -2 219 -3 219 -42 23 c-53 29 -137 38 -178 18z"/>
<path d="M1843 1325 c-93 -47 -93 -47 -93 -281 0 -227 -2 -221 75 -255 76 -35
161 -22 212 33 60 64 88 220 63 352 -28 152 -134 213 -257 151z"/>
</g>
</svg>
